<?xml version="1.0" encoding="UTF-8"?>
<svg xmlns="http://www.w3.org/2000/svg" width="196" height="30" viewBox="0 0 196 30" fill="none">
  <path d="M13.8277 15.561L21.1407 4.95755L16.3041 1.41338C13.0499 -0.973239 8.45918 -0.264851 6.07218 2.99105L1.41439 9.34419C-0.972609 12.6001 -0.266343 17.1901 2.99008 19.5767L9.34425 24.2337C12.6007 26.6203 17.1914 25.912 19.5784 22.6561L26.4779 13.2437L20.5685 14.3498L16.2616 20.2248C15.2156 21.6527 13.2019 21.9611 11.7759 20.9153L5.42179 16.2605C3.99361 15.2146 3.68517 13.2012 4.73116 11.7755L9.38895 5.42236C10.4349 3.99441 12.4487 3.68603 13.8746 4.73185L15.3944 5.84471L13.2399 9.23022L14.677 9.16542L10.8216 12.0816L10.0103 13.1878L13.8277 15.561Z" fill="#008DFF"></path>
  <path d="M13.4625 16.0761C13.5251 15.9934 13.5854 15.9085 13.6435 15.8236L20.181 6.15645L15.5232 5.60449L9.91553 13.3029C10.9302 14.2437 12.4478 15.1353 13.4625 16.0761Z" fill="#008DFF"></path>
  <path d="M30.5489 10.1459L23.5175 20.9393L28.4457 24.3538C31.7647 26.6533 36.3331 25.8243 38.633 22.508L43.1209 16.0342C45.4207 12.7157 44.5915 8.14808 41.2748 5.84862L34.7999 1.36142C31.4809 -0.938047 26.9125 -0.108988 24.6127 3.20725L17.9635 12.7984L23.8416 11.5381L27.9943 5.54917C29.0023 4.09441 31.0071 3.73239 32.4598 4.74023L38.9347 9.22743C40.3897 10.2353 40.7518 12.2397 39.7438 13.6923L35.2559 20.1661C34.2479 21.6209 32.243 21.9829 30.7903 20.975L29.2414 19.9024L31.3043 16.461L29.8695 16.5638L33.6466 13.5448L34.4289 12.4163L30.5489 10.1459Z" fill="#008DFF"></path>
  <path d="M30.895 9.62695C30.8347 9.71187 30.7766 9.79679 30.7207 9.88394L24.4403 19.7209L29.1115 20.15L34.5158 12.3063C33.4743 11.3923 31.9343 10.5409 30.895 9.62695Z" fill="#008DFF"></path>
  <path d="M152 10.2473H148.158V17.7255C148.158 18.3695 148.302 18.8369 148.592 19.1277C148.881 19.3977 149.304 19.5535 149.862 19.5951C150.441 19.6158 151.153 19.6055 152 19.5639V22.5863C149.439 22.8979 147.6 22.6798 146.485 21.932C145.369 21.1634 144.811 19.7612 144.811 17.7255V10.2473H141.961V7.0068H144.811V3.64162L148.158 2.64453V7.0068H152V10.2473Z" fill="#1A1A1A"></path>
  <path d="M60.0291 19.2469V13.331H68.8087V9.92064H60.0291V4.22609H66.8143L69.5914 0.783691H59.2175L56.4243 3.57161V22.6877H69.7489V19.2469H60.0291Z" fill="#1A1A1A"></path>
  <path d="M81.7389 13.612L86.5522 7.04639H82.602L79.7638 10.9107" fill="#1A1A1A"></path>
  <path d="M79.0002 11.9758L75.3939 7.04639H74.0391H71.4757L77.0412 14.6562L71.1624 22.6928H75.1126L79.0163 17.3575L82.9184 22.6928H86.8381L80.9754 14.6771" fill="#1A1A1A"></path>
  <path d="M101.946 7.051H100.413V9.27267C99.1383 7.521 97.3094 6.64355 94.9261 6.64355C92.7726 6.64355 90.934 7.43598 89.4089 9.02243C87.8821 10.6073 87.1204 12.5579 87.1204 14.8742C87.1204 17.1696 87.8837 19.1138 89.4089 20.7099C90.934 22.306 92.7742 23.1032 94.9261 23.1032C97.3094 23.1032 99.1383 22.2161 100.413 20.4436V22.6974H103.799V8.90052L101.946 7.051ZM99.0017 18.4577C98.0616 19.4074 96.8803 19.8822 95.4597 19.8822C94.0374 19.8822 92.8577 19.4074 91.9176 18.4577C90.9774 17.5081 90.5065 16.3147 90.5065 14.8742C90.5065 13.4353 90.9774 12.2403 91.9176 11.2906C92.8577 10.341 94.039 9.86619 95.4597 9.86619C96.8803 9.86619 98.0616 10.341 99.0017 11.2906C99.9419 12.2403 100.413 13.4337 100.413 14.8742C100.413 16.3147 99.9419 17.5081 99.0017 18.4577Z" fill="#1A1A1A"></path>
  <path d="M122.134 9.01272C120.607 7.42787 118.768 6.63384 116.617 6.63384C114.233 6.63384 112.404 7.50968 111.13 9.26296V0.783691H107.744V20.7932L109.643 22.6893H111.13V20.4355C112.404 22.2096 114.233 23.0951 116.617 23.0951C118.768 23.0951 120.609 22.2979 122.134 20.7018C123.659 19.1057 124.422 17.1599 124.422 14.8661C124.422 12.5498 123.659 10.5992 122.134 9.01272ZM119.625 18.448C118.685 19.3977 117.504 19.8725 116.083 19.8725C114.661 19.8725 113.481 19.3977 112.541 18.448C111.601 17.4984 111.13 16.305 111.13 14.8645C111.13 13.4256 111.601 12.2305 112.541 11.2809C113.481 10.3313 114.662 9.85647 116.083 9.85647C117.504 9.85647 118.685 10.3313 119.625 11.2809C120.565 12.2305 121.036 13.424 121.036 14.8645C121.036 16.305 120.567 17.4984 119.625 18.448Z" fill="#1A1A1A"></path>
  <path d="M137.442 7.04799L133.432 18.4066L128.757 7.04799H127.732L125.865 8.91195L131.705 22.4137L131.547 22.7265C131.129 23.8108 130.596 24.6097 129.948 25.1198C129.301 25.6315 128.444 25.8544 127.377 25.7919V28.952C130.972 29.1605 133.522 27.2404 135.027 23.1932L141.047 7.04639H137.442V7.04799Z" fill="#1A1A1A"></path>
  <path d="M156.686 4.69958C157.271 4.69958 157.778 4.48624 158.207 4.05794C158.634 3.63125 158.85 3.12436 158.85 2.54046C158.85 1.95657 158.641 1.45128 158.223 1.02299C157.805 0.596297 157.292 0.381348 156.686 0.381348C156.081 0.381348 155.568 0.594693 155.15 1.02299C154.732 1.45128 154.523 1.95657 154.523 2.54046C154.523 3.12436 154.737 3.63125 155.166 4.05794C155.594 4.48624 156.102 4.69958 156.686 4.69958Z" fill="#1A1A1A"></path>
  <path d="M154.989 9.15578V22.6928H158.375V7.04639H157.102C156.396 7.75059 155.692 8.45318 154.989 9.15578Z" fill="#1A1A1A"></path>
  <path d="M174.899 8.36475C173.79 7.21782 172.339 6.64355 170.541 6.64355C168.325 6.64355 166.705 7.44721 165.681 9.05291V7.04939H164.911C164.038 7.92042 163.166 8.79144 162.295 9.66086V22.6958H165.681V14.3095C165.681 12.7873 166.046 11.6548 166.779 10.9137C167.51 10.1742 168.471 9.80363 169.663 9.80363C170.75 9.80363 171.608 10.1164 172.235 10.742C172.861 11.3676 173.175 12.2659 173.175 13.4337V22.6974H176.561V13.0888C176.561 11.0869 176.007 9.51168 174.899 8.36475Z" fill="#1A1A1A"></path>
  <path d="M194.109 7.04939H192.677V9.36571C191.402 7.55147 189.583 6.64355 187.222 6.64355C185.006 6.64355 183.135 7.43117 181.61 9.00639C180.083 10.5816 179.322 12.4857 179.322 14.717C179.322 16.9499 180.085 18.8523 181.61 20.4276C183.135 22.0028 185.006 22.7904 187.222 22.7904C189.585 22.7904 191.402 21.8825 192.677 20.0683V21.9771C192.677 23.3326 192.264 24.3913 191.438 25.1532C190.611 25.9152 189.467 26.2954 188.005 26.2954C185.768 26.2954 184.243 25.4917 183.428 23.886L180.512 25.5751C181.85 28.1 184.326 29.3624 187.942 29.3624C190.179 29.3624 192.08 28.7256 193.649 27.4535C195.216 26.1815 196 24.356 196 21.9771V8.93742L194.109 7.04939ZM191.251 18.2219C190.3 19.1603 189.114 19.6303 187.693 19.6303C186.271 19.6303 185.085 19.1603 184.135 18.2219C183.183 17.2835 182.708 16.1158 182.708 14.717C182.708 13.3198 183.183 12.1504 184.135 11.212C185.086 10.2736 186.272 9.80363 187.693 9.80363C189.114 9.80363 190.3 10.2736 191.251 11.212C192.203 12.1504 192.678 13.3198 192.678 14.717C192.677 16.1142 192.201 17.2835 191.251 18.2219Z" fill="#1A1A1A"></path>
</svg>
